<?xml version="1.0" encoding="utf-8"?>
<!-- Generator: Adobe Illustrator 20.1.0, SVG Export Plug-In . SVG Version: 6.00 Build 0)  -->
<svg version="1.1" xmlns="http://www.w3.org/2000/svg" xmlns:xlink="http://www.w3.org/1999/xlink" x="0px" y="0px"
	 viewBox="0 0 128 128" style="enable-background:new 0 0 128 128;" xml:space="preserve">
<style type="text/css">
	.st0{fill:#7BDB7D;}
	.st1{fill:#E5E5E5;}
	.st2{fill:#7B7C7C;}
	.st3{fill:#232222;}
	.st4{fill:#C6B3A7;}
	.st5{fill:#DBC5B6;}
	.st6{fill:#404D8E;}
</style>
<g id="Шар_1">
	<g id="Шар_1_1_">
		<g>
			<circle class="st0" cx="64.3" cy="64" r="62.3"/>
		</g>
	</g>
	<g id="Шар_2">
		<g>
			<ellipse class="st1" cx="64.3" cy="64.3" rx="55.5" ry="56.3"/>
		</g>
	</g>
	<g id="Шар_5">
	</g>
</g>
<g id="Шар_4">
</g>
<g id="Шар_2_1_">
</g>
<g id="Шар_7">
	<path class="st2" d="M32.3,94.5l0.4-1.5c3.7-0.8,7.4-1.6,11.6-2.5l34.5-1.3L99.2,92l0,0l-24.7,17.2l-34.7-9.7L32.3,97"/>
</g>
<g id="Шар_3">
	<path class="st3" d="M101.4,42.3"/>
	<polygon class="st4" points="49.6,91.1 49.6,108.8 77,108.8 77,85.1 49.6,85.1 	"/>
	<path class="st5" d="M42.5,51.9l0.3,29.3C46.5,86.9,56,98,62.6,98.5c7.8,0.6,20.3-15.4,21.6-20.2V51.9H42.5z"/>
	<path class="st3" d="M61.9,32.7c-9.7-0.6-17,1.5-20.8,6.7l1.5,12.5h41.7V35.6L61.9,32.7z"/>
	<path class="st3" d="M41,39.4c-4.8,7.7-5.9,18.2-6.2,29.3L41,55.3c-0.5,7.6,0.2,17.5,1.5,28.6c1.4-14,4.4-25.8,9.5-34.6L41,39.4z"
		/>
	<path class="st3" d="M84.2,35.6c4.4,7.6,2,32.7-2.2,50.4c0-13-1.8-25.2-4.8-36.9L84.2,35.6z"/>
	<polygon class="st3" points="77.2,50.7 78.3,69.5 81.7,57.6 	"/>
	<path class="st3" d="M53.6,32.9"/>
	<path class="st3" d="M56.3,32.9c6.4-4.5,11.9-9.3,16.8-14.4c-3.4,7.2-6.9,13.3-11,15.9L56.3,32.9z"/>
	<path class="st3" d="M60.7,31.5c10-2.8,18.9-7.3,27.1-13c-2.1,8-5,14.9-8.3,18.5H60.7V31.5z"/>
	<path class="st3" d="M48.1,45.8"/>
	<path class="st3" d="M77.2,32.9l14.6-6.5c-2.1,6.2-5.4,10.6-10.1,13L77.2,32.9z"/>
	<path class="st3" d="M66.4,27.7c3.2-0.6,6.9-3.4,10.8-7.3l-5.4,12.2l-7.1-0.5L66.4,27.7z"/>
	<path class="st3" d="M62.1,30c-6.3,0.6-15,4-17.9,7.1l12.1,2.3L62.1,30z"/>
	<path class="st3" d="M82,35.3l10.5-0.6c-2.8,3.4-5.7,5.9-9.1,6.8L82,35.3z"/>
	<polygon class="st3" points="48.1,51.9 48.8,65.8 55.2,48.7 	"/>
	<polygon class="st3" points="73.1,51.6 73.5,65.9 79.5,49.3 	"/>
	<path class="st6" d="M32.3,94.5c2.9,0.2,7.4,4.3,13.8,4.1c6.8,2.2,12.7,7.1,19.5,6.6c8,0.8,14.8-5,20.8-8.2l12.7-5l-2.8,18.3
		c-7,5.1-15.2,8.6-25.3,9.9c-6.1,1.5-15.2,0.6-21.4-1.6c-9.2-2.6-17.3-8.3-17.3-8.3V94.5z"/>
</g>
<g id="Шар_6">
	<path class="st3" d="M49.6,50.2"/>
</g>
</svg>
