<?xml version="1.0" encoding="utf-8"?>
<!-- Generator: Adobe Illustrator 20.1.0, SVG Export Plug-In . SVG Version: 6.00 Build 0)  -->
<svg version="1.1" xmlns="http://www.w3.org/2000/svg" xmlns:xlink="http://www.w3.org/1999/xlink" x="0px" y="0px"
	 viewBox="0 0 128 128" style="enable-background:new 0 0 128 128;" xml:space="preserve">
<style type="text/css">
	.st0{fill:#282727;}
	.st1{fill:#EFE9DF;}
	.st2{fill:#84756D;}
	.st3{fill:#E57676;}
	.st4{fill:#BCA59B;}
	.st5{fill:#DDD5CA;}
	.st6{fill:#3F3532;}
	.st7{fill:#EAA4AE;}
</style>
<g id="Шар_1">
	<g>
		<circle class="st0" cx="64.3" cy="64" r="62.3"/>
	</g>
</g>
<g id="Шар_2">
	<g>
		<ellipse class="st1" cx="64.3" cy="64.3" rx="55.5" ry="56.3"/>
	</g>
</g>
<g id="Шар_5">
	<path class="st2" d="M36.6,113l-2.1-22.6c0-3.9,1.9-10.7,7.1-10.7L62.5,78l24.6,1.8c6.4,0,7.6,5.7,7.4,9.9l-2.1,23.3
		c-8.4,6.1-16.5,7.9-28.2,7.7C54.3,122.4,38.8,115.4,36.6,113z"/>
</g>
<g id="Шар_6">
	<polygon class="st3" points="59.3,79.4 61.8,84 66,84 69.5,78.6 	"/>
	<polygon class="st3" points="62,83.4 59.3,97.2 61.8,112.7 64.1,115.8 67,112.4 68.9,97.4 66,84 	"/>
</g>
<g id="Шар_3">
	<g>
		<path class="st4" d="M33,50.6l6.5-0.1c0.8-25.7,48.7-32,49,0l6.7,0.1C88.1,67.9,84.4,78,65.7,80.5C45.1,80.5,40.5,69.6,33,50.6z"
			/>
		<path class="st2" d="M60.2,43.5c-5.7-1.4-10.1,1.8-14.5,5c-3.8,2.2-8.1,2.6-12.6,2.4c1.2,2.5,4.7,5.3,11.5,8.5
			c4.7,2.3,10.2,3.2,16.1,3.1C62.4,56.1,64.1,45.1,60.2,43.5z"/>
		<path class="st2" d="M67.8,44c5.6-1.6,10.1,1.4,14.6,4.5c3.9,2.1,8.2,2.3,12.6,1.9c-1.1,2.6-4.5,5.6-11.2,9.1
			c-4.6,2.5-10,3.6-15.9,3.7C65.6,56.4,64.2,45.2,67.8,44z"/>
		<g>
			<ellipse class="st5" cx="64.2" cy="69.9" rx="17.9" ry="10.6"/>
		</g>
		<path class="st6" d="M58.9,59.8c2.9-2.7,9.5-0.5,9.6,0.4c0.4,0.4,0.7,4.6-1.5,5.2c-1.9,0.8-3.8,0.7-5.7,0
			C59.5,63.7,58.7,61.6,58.9,59.8z"/>
		<polygon class="st6" points="63.6,62.7 63.8,71 65,71 65,62.4 		"/>
		<ellipse class="st6" cx="71.9" cy="51.5" rx="1.1" ry="3.1"/>
		<ellipse class="st6" cx="56.7" cy="51.5" rx="1.1" ry="3.1"/>
		<ellipse class="st7" cx="50.4" cy="57.3" rx="3.2" ry="2.7"/>
		<ellipse class="st7" cx="78.4" cy="57.9" rx="3.2" ry="2.7"/>
		<path class="st4" d="M38.7,28.1c0.1-1.7,1.1-2.2,2.6-2.1l6.4,3.6c2.5,1.1,4.5,2.7,6.3,4.6l-10.9,7.4c-0.3-0.9-0.9-2.8-2.4-7.3
			L38.7,28.1z"/>
		<path class="st4" d="M88.6,25.8c1.6-0.1,2.3,0.8,2.4,2.3l-2.2,7.2c-0.6,2.7-1.7,5.1-3.2,7.2l-9-9.8c0.8-0.4,2.5-1.4,6.5-3.7
			L88.6,25.8z"/>
		<path class="st2" d="M40.6,28.8l3.7,9.9c1.3-2.5,3.4-4.4,6.2-5.6L42,27.8C40.9,27.5,40.5,27.9,40.6,28.8z"/>
		<path class="st2" d="M80.3,32.8c2,1.3,4.3,3.4,5.5,6L89.9,28c0-0.7-0.3-1.1-0.9-1.2L80.3,32.8z"/>
	</g>
</g>
<g id="Шар_4">
</g>
</svg>
