<?xml version="1.0" encoding="utf-8"?>
<!-- Generator: Adobe Illustrator 20.1.0, SVG Export Plug-In . SVG Version: 6.00 Build 0)  -->
<svg version="1.1" xmlns="http://www.w3.org/2000/svg" xmlns:xlink="http://www.w3.org/1999/xlink" x="0px" y="0px"
	 viewBox="0 0 128 128" style="enable-background:new 0 0 128 128;" xml:space="preserve">
<style type="text/css">
	.st0{fill:#E5BC6A;}
	.st1{fill:#EFE9DF;}
	.st2{fill:#7FE2AE;}
	.st3{fill:#AF80E0;}
	.st4{fill:#E0D280;}
	.st5{fill:#3F3F3F;}
</style>
<g id="Шар_1">
	<g id="Шар_1_1_">
		<g>
			<circle class="st0" cx="64.3" cy="64" r="62.3"/>
		</g>
	</g>
	<g id="Шар_2">
		<g>
			<ellipse class="st1" cx="64.3" cy="64.3" rx="55.5" ry="56.3"/>
		</g>
	</g>
</g>
<g id="Шар_2_1_">
	<g>
		<rect x="42.4" y="65.2" class="st2" width="33.1" height="33.1"/>
		<polygon class="st3" points="75.4,65.2 86.2,52.7 86.2,84.2 75.4,98.2 		"/>
		<polygon class="st4" points="75.4,65.2 86.2,52.7 54.6,52.7 42.4,65.2 		"/>
	</g>
	<polygon class="st5" points="60.8,45.9 60.8,31.8 53.3,31.8 64,18.8 75.3,32.3 68.2,32.3 68.2,45.9 	"/>
</g>
<g id="Шар_3">
	<polygon class="st5" points="38.6,71.7 24.6,71.7 24.6,79.1 11.5,68.5 25.1,57.2 25.1,64.3 38.6,64.3 	"/>
	<polygon class="st5" points="91,70.2 105,70.2 105,77.6 118.1,67 104.6,55.7 104.6,62.8 91,62.8 	"/>
</g>
</svg>
