<?xml version="1.0" encoding="utf-8"?>
<!-- Generator: Adobe Illustrator 20.1.0, SVG Export Plug-In . SVG Version: 6.00 Build 0)  -->
<svg version="1.1" xmlns="http://www.w3.org/2000/svg" xmlns:xlink="http://www.w3.org/1999/xlink" x="0px" y="0px"
	 viewBox="0 0 128 128" style="enable-background:new 0 0 128 128;" xml:space="preserve">
<style type="text/css">
	.st0{fill:#F4C542;}
	.st1{fill:#F2E3C0;}
	.st2{fill:#EFB930;}
</style>
<g id="Шар_1">
	<g>
		<circle class="st0" cx="64.3" cy="64" r="62.3"/>
	</g>
</g>
<g id="Шар_2">
	<g>
		<ellipse class="st1" cx="64.3" cy="64.3" rx="55.5" ry="56.3"/>
	</g>
</g>
<g id="Шар_3">
	<g>
		<path class="st2" d="M33,35.7v53.5c2,2,4,2,7,0V35.7C37,32.8,35,32.8,33,35.7z"/>
	</g>
	<g>
		<path class="st0" d="M54,35.7v53.5c2,2,4,2,7,0V35.7C58,32.8,56,32.8,54,35.7z"/>
	</g>
	<g>
		<path class="st0" d="M25.1,55h42.4c1.6-3,1.6-6,0-9H25.1C22.8,49,22.8,52,25.1,55z"/>
	</g>
	<g>
		<path class="st0" d="M25.1,55h42.4c1.6-3,1.6-6,0-9H25.1C22.8,49,22.8,52,25.1,55z"/>
	</g>
	<g>
		<path class="st0" d="M25.1,79h42.4c1.6-3,1.6-6,0-9H25.1C22.8,73,22.8,76,25.1,79z"/>
	</g>
	<g>
		<rect x="83" y="34" class="st0" width="14" height="62"/>
		<path class="st0" d="M78,29c-3,1.7-3,3.3,0,5h19v-5H78z"/>
		<path class="st0" d="M104,88H71c-3,3.1-3.6,6.6,0,11h33C107.7,95.3,107.7,91.7,104,88z"/>
	</g>
</g>
</svg>
