<?xml version="1.0" encoding="utf-8"?>
<!-- Generator: Adobe Illustrator 20.1.0, SVG Export Plug-In . SVG Version: 6.00 Build 0)  -->
<svg version="1.1" xmlns="http://www.w3.org/2000/svg" xmlns:xlink="http://www.w3.org/1999/xlink" x="0px" y="0px"
	 viewBox="0 0 128 128" style="enable-background:new 0 0 128 128;" xml:space="preserve">
<style type="text/css">
	.st0{fill:#6688D3;}
	.st1{fill:#C7C7F2;}
	.st2{fill:#EDEDED;}
	.st3{fill:#5779B5;}
	.st4{fill:#EABB9B;}
	.st5{fill:#E87979;}
	.st6{fill:#2B2B2B;}
</style>
<g id="Шар_1">
	<g>
		<circle class="st0" cx="64.3" cy="64" r="62.3"/>
	</g>
</g>
<g id="Шар_2">
	<ellipse class="st1" cx="64.3" cy="64.3" rx="55.5" ry="56.3"/>
</g>
<g id="Шар_6">
	<path class="st2" d="M71.6,91.9c1.6-0.8,3.4-0.9,5.5-0.7l3.8-2.2c1.5-0.6,2.9-0.5,4.1,0l2.8,2.4c0.8,0.8,1.3,0.7,2.3,0.4l3.1-2.1
		c0.9-0.5,1.9-0.9,3.4-0.7c1-0.6,1.7-0.5,2.4,0l1.6,2.3c0.7,0.9,1.7,1.4,2.7,1c1.4-0.4,2-0.7,2.8-1.8c0.1-0.8,0.7-1.3,1.9-1.4
		c1.4,0.3,1.5,0.8,1.5,1.4c1.1,0.3,1.7,1,1.6,2.3c-0.1,1.1-0.6,1.8-1.6,2.3c-0.4,0.9-1.4,1.7-3.6,2.3L86.4,98H62l7.3-3.3
		C69.5,93.9,70.4,93,71.6,91.9z"/>
	<path class="st2" d="M22.6,68.9c1.6-0.8,3.4-0.9,5.5-0.7l3.8-2.2c1.5-0.6,2.9-0.5,4.1,0l2.8,2.4c0.8,0.8,1.3,0.7,2.3,0.4l3.1-2.1
		c0.9-0.5,1.9-0.9,3.4-0.7c1-0.6,1.7-0.5,2.4,0l1.6,2.3c0.7,0.9,1.7,1.4,2.7,1c1.4-0.4,2-0.7,2.8-1.8c0.1-0.8,0.7-1.3,1.9-1.4
		c1.4,0.3,1.5,0.8,1.5,1.4c1.1,0.3,1.7,1,1.6,2.3c-0.1,1.1-0.6,1.8-1.6,2.3c-0.4,0.9-1.4,1.7-3.6,2.3L37.4,75H13l7.3-3.3
		C20.5,70.9,21.4,70,22.6,68.9z"/>
	<path class="st2" d="M78.6,53.9c1.6-0.8,3.4-0.9,5.5-0.7l3.8-2.2c1.5-0.6,2.9-0.5,4.1,0l2.8,2.4c0.8,0.8,1.3,0.7,2.3,0.4l3.1-2.1
		c0.9-0.5,1.9-0.9,3.4-0.7c1-0.6,1.7-0.5,2.4,0l1.6,2.3c0.7,0.9,1.7,1.4,2.7,1c1.4-0.4,2-0.7,2.8-1.8c0.1-0.8,0.7-1.3,1.9-1.4
		c1.4,0.3,1.5,0.8,1.5,1.4c1.1,0.3,1.7,1,1.6,2.3c-0.1,1.1-0.6,1.8-1.6,2.3c-0.4,0.9-1.4,1.7-3.6,2.3L93.4,60H69l7.3-3.3
		C76.5,55.9,77.4,55,78.6,53.9z"/>
</g>
<g id="Шар_3">
</g>
<g id="Шар_4">
</g>
<g id="Шар_7">
	<polygon class="st3" points="64.6,44.5 75.9,28.9 79.3,31.4 65.7,53 62.9,49.3 	"/>
	<path class="st4" d="M74.8,30.4l3.3,2.5l3.7-4.7c0.7-2-1.2-3.3-3.5-2.5L74.8,30.4z"/>
</g>
<g id="Шар_5">
	<path class="st3" d="M62,44c0,7,0,26,0,26h18c0,0,0-17.8,0-26C78,38,63.8,38.4,62,44z"/>
	<path class="st3" d="M62.7,67.1l-4.9,16.3l8.6,2.6l4.9-16.3C69.2,66.4,66.3,65.5,62.7,67.1z"/>
	<polygon class="st3" points="57.8,83.3 51.8,96 56.2,97.8 66.4,85.9 	"/>
	<path class="st5" d="M51.8,96l4.3,1.8l-4.6,6.8c-1.8,1.4-5.3,2.7-4.5-1.2L51.8,96z"/>
	<g>
		<path class="st3" d="M72.3,65.9l-8,14.2c0.4,7.5,7.7,4.2,7.7,4.2c0.2-0.3,5.2-9.1,8-14.2C78.6,66.6,76,65.2,72.3,65.9z"/>
		<polygon class="st3" points="66.6,77.4 53.8,78.5 54.3,82.7 68.2,85 		"/>
		<path class="st5" d="M54,78.4l0.9,4.4l-8.1,0c-2.1-0.6-5.1-2.8-1.6-4.2L54,78.4z"/>
	</g>
	<path class="st5" d="M74.5,39.6l-2.7,2.9c-0.9,0.8-2.2,0.9-3.8,0.5l-2.8-2.4L62,43L27.3,61.8c1.3,3.1,3.1,5.1,5.7,5.2h4
		c1.3,0.4,1.9,1.1,1.8,2l-0.3,2.5c0.4,1.1,1.1,1.6,2.2,1.5l2.9-1c1.4-0.1,2.3,0.3,2.6,0.9l0.7,3.1c1.3,1.1,3.1,0.9,5.1,0l27.7-32.8
		c0.1-0.4-0.6-1.2-2.3-2.4L74.5,39.6z"/>
	<polygon class="st3" points="78.6,44.5 89.9,28.9 93.3,31.4 79.7,53 76.9,49.3 	"/>
	<path class="st4" d="M88.8,30.4l3.3,2.5l3.7-4.7c0.7-2-1.2-3.3-3.5-2.5L88.8,30.4z"/>
	<path class="st4" d="M65.2,40.6c2.7,0.3,6.6,1.4,9.3-1c-0.5-4.2-1.7-7.9-3.5-11.2c-3.3-0.8-6.2,0.6-9,2.5
		C62.7,34.4,63.7,37.7,65.2,40.6z"/>
	<path class="st6" d="M63.2,35.2l2.2-0.7l-0.8-2.4l7.4-2.2l2-4.4c0.6-0.9,0.7-2,0-3.5c-1.3-1.3-2.6-1.2-4,0l-1.4,3.5l-4.4,2.2
		l-3.6,1.9L63.2,35.2z"/>
</g>
</svg>
